<?xml version="1.0" encoding="UTF-8" standalone="no"?>
<!DOCTYPE svg PUBLIC "-//W3C//DTD SVG 1.1//EN"
 "http://www.w3.org/Graphics/SVG/1.1/DTD/svg11.dtd">
<!-- Generated by graphviz version 12.2.1 (20241206.2353)
 -->
<!-- Title: flowchart Pages: 1 -->
<svg width="368pt" height="713pt"
 viewBox="0.00 0.00 367.75 713.00" xmlns="http://www.w3.org/2000/svg" xmlns:xlink="http://www.w3.org/1999/xlink">
<g id="graph0" class="graph" transform="scale(1 1) rotate(0) translate(4 709)">
<title>flowchart</title>
<polygon fill="white" stroke="none" points="-4,4 -4,-709 363.75,-709 363.75,4 -4,4"/>
<!-- input_uc -->
<g id="node1" class="node">
<title>input_uc</title>
<g id="a_node1"><a xlink:href="https://manual.gromacs.org/current/reference-manual/file-formats.html#gro" xlink:title="Unit cell structure file" target="_blank">
<text text-anchor="middle" x="324.12" y="-691.7" font-family="Times,serif" font-size="14.00">unit_cell.gro</text>
</a>
</g>
</g>
<!-- genconf -->
<g id="node2" class="node">
<title>genconf</title>
<g id="a_node2"><a xlink:href="https://manual.gromacs.org/current/onlinehelp/gmx-genconf.html" xlink:title="Multiply the unit cell in x y and z" target="_blank">
<polygon fill="none" stroke="black" points="270.12,-651.5 54.12,-651.5 54.12,-610.5 270.12,-610.5 270.12,-651.5"/>
<text text-anchor="middle" x="162.12" y="-634.2" font-family="Times,serif" font-size="14.00">Generate a sheet of the material</text>
<text text-anchor="middle" x="162.12" y="-617.7" font-family="Times,serif" font-size="14.00">gmx genconf</text>
</a>
</g>
</g>
<!-- input_uc&#45;&gt;genconf -->
<g id="edge1" class="edge">
<title>input_uc&#45;&gt;genconf:e</title>
<path fill="none" stroke="black" d="M320.29,-688.82C312.73,-675.51 295.41,-646.7 281.18,-635.54"/>
<polygon fill="black" stroke="black" points="283.06,-632.55 272.5,-631.62 280.18,-638.93 283.06,-632.55"/>
</g>
<!-- input_mdp -->
<g id="node6" class="node">
<title>input_mdp</title>
<g id="a_node6"><a xlink:href="https://manual.gromacs.org/current/reference-manual/file-formats.html#mdp" xlink:title="Parameter file from grompp (controls all MD parameters)" target="_blank">
<text text-anchor="middle" x="324.12" y="-328.95" font-family="Times,serif" font-size="14.00">grompp.mdp</text>
</a>
</g>
</g>
<!-- input_uc&#45;&gt;input_mdp -->
<!-- editconf -->
<g id="node3" class="node">
<title>editconf</title>
<g id="a_node3"><a xlink:href="https://manual.gromacs.org/current/onlinehelp/gmx-editconf.html" xlink:title="Adjust box size" target="_blank">
<polygon fill="none" stroke="black" points="126.25,-558 0,-558 0,-517 126.25,-517 126.25,-558"/>
<text text-anchor="middle" x="63.12" y="-540.7" font-family="Times,serif" font-size="14.00">Enlarge the box in z</text>
<text text-anchor="middle" x="63.12" y="-524.2" font-family="Times,serif" font-size="14.00">gmx editconf</text>
</a>
</g>
</g>
<!-- genconf&#45;&gt;editconf -->
<g id="edge2" class="edge">
<title>genconf&#45;&gt;editconf</title>
<g id="a_edge2"><a xlink:href="https://manual.gromacs.org/current/reference-manual/file-formats.html#gro" xlink:title="conf.gro">
<path fill="none" stroke="black" d="M125.45,-610.08C117.42,-604.9 109.27,-598.94 102.38,-592.5 94.62,-585.26 87.39,-576.29 81.31,-567.76"/>
<polygon fill="black" stroke="black" points="84.33,-565.97 75.81,-559.67 78.54,-569.91 84.33,-565.97"/>
</a>
</g>
<g id="a_edge2&#45;label"><a xlink:href="https://manual.gromacs.org/current/reference-manual/file-formats.html#gro" xlink:title="GROMACS coordinate file containing molecules from PDB file">
<text text-anchor="middle" x="125.25" y="-579.2" font-family="Times,serif" font-size="14.00">conf.gro</text>
</a>
</g>
</g>
<!-- insert -->
<g id="node4" class="node">
<title>insert</title>
<g id="a_node4"><a xlink:href="https://manual.gromacs.org/current/onlinehelp/gmx-insert-molecules.html" xlink:title="Add molecules of interest" target="_blank">
<polygon fill="none" stroke="black" points="270.12,-464.5 54.12,-464.5 54.12,-423.5 270.12,-423.5 270.12,-464.5"/>
<text text-anchor="middle" x="162.12" y="-447.2" font-family="Times,serif" font-size="14.00">Insert molecules of interest</text>
<text text-anchor="middle" x="162.12" y="-430.7" font-family="Times,serif" font-size="14.00">gmx insert&#45;molecules</text>
</a>
</g>
</g>
<!-- genconf&#45;&gt;insert -->
<g id="edge3" class="edge">
<title>genconf&#45;&gt;insert</title>
<g id="a_edge3"><a xlink:href="https://manual.gromacs.org/current/reference-manual/file-formats.html#top" xlink:title=" &#160;topol.top">
<path fill="none" stroke="black" d="M162.12,-610.2C162.12,-578.16 162.12,-514.66 162.12,-476.4"/>
<polygon fill="black" stroke="black" points="165.63,-476.45 162.13,-466.45 158.63,-476.45 165.63,-476.45"/>
</a>
</g>
<g id="a_edge3&#45;label"><a xlink:href="https://manual.gromacs.org/current/reference-manual/file-formats.html#top" xlink:title="GROMACS ascii topology file">
<text text-anchor="middle" x="190.25" y="-532.45" font-family="Times,serif" font-size="14.00"> &#160;topol.top</text>
</a>
</g>
</g>
<!-- editconf&#45;&gt;insert -->
<g id="edge4" class="edge">
<title>editconf&#45;&gt;insert</title>
<g id="a_edge4"><a xlink:href="https://manual.gromacs.org/current/reference-manual/file-formats.html#gro" xlink:title="conf.gro">
<path fill="none" stroke="black" d="M74.95,-516.58C82.03,-505.71 91.7,-492.47 102.38,-482.5 106.57,-478.58 111.24,-474.83 116.06,-471.33"/>
<polygon fill="black" stroke="black" points="117.92,-474.31 124.2,-465.77 113.97,-468.53 117.92,-474.31"/>
</a>
</g>
<g id="a_edge4&#45;label"><a xlink:href="https://manual.gromacs.org/current/reference-manual/file-formats.html#gro" xlink:title="GROMACS coordinate file with adjusted box etc.">
<text text-anchor="middle" x="125.25" y="-485.7" font-family="Times,serif" font-size="14.00">conf.gro</text>
</a>
</g>
</g>
<!-- solvate -->
<g id="node5" class="node">
<title>solvate</title>
<g id="a_node5"><a xlink:href="https://manual.gromacs.org/current/onlinehelp/gmx-solvate.html" xlink:title="Fill box with water (solvate molecule)" target="_blank">
<polygon fill="none" stroke="black" points="270.12,-354.5 54.12,-354.5 54.12,-313.5 270.12,-313.5 270.12,-354.5"/>
<text text-anchor="middle" x="162.12" y="-337.2" font-family="Times,serif" font-size="14.00">Solvate box</text>
<text text-anchor="middle" x="162.12" y="-320.7" font-family="Times,serif" font-size="14.00">gmx solvate</text>
</a>
</g>
</g>
<!-- insert&#45;&gt;solvate -->
<g id="edge5" class="edge">
<title>insert&#45;&gt;solvate</title>
<path fill="none" stroke="black" d="M162.12,-423.19C162.12,-407.21 162.12,-384.43 162.12,-366.03"/>
<polygon fill="black" stroke="black" points="165.63,-366.2 162.13,-356.2 158.63,-366.2 165.63,-366.2"/>
<g id="a_edge5&#45;label"><a xlink:title="GROMACS coordinate and topology files">
<g id="a_edge5_0"><a xlink:href="https://manual.gromacs.org/current/reference-manual/file-formats.html#gro" xlink:title="&lt;TABLE&gt;">
<text text-anchor="start" x="165.5" y="-392.2" font-family="Times,serif" font-size="14.00"> conf.gro</text>
</a>
</g>
<g id="a_edge5_1"><a xlink:href="https://manual.gromacs.org/current/reference-manual/file-formats.html#top" xlink:title="&lt;TABLE&gt;">
<text text-anchor="start" x="162.12" y="-375.7" font-family="Times,serif" font-size="14.00"> &#160;topol.top</text>
</a>
</g>
</a>
</g>
</g>
<!-- grompp -->
<g id="node7" class="node">
<title>grompp</title>
<g id="a_node7"><a xlink:href="https://manual.gromacs.org/current/onlinehelp/gmx-grompp.html" xlink:title="Process parameters, coordinates and topology and write binary topology" target="_blank">
<polygon fill="none" stroke="black" points="270.12,-244.5 54.12,-244.5 54.12,-203.5 270.12,-203.5 270.12,-244.5"/>
<text text-anchor="middle" x="162.12" y="-227.2" font-family="Times,serif" font-size="14.00">Generate mdrun input file</text>
<text text-anchor="middle" x="162.12" y="-210.7" font-family="Times,serif" font-size="14.00">gmx grompp</text>
</a>
</g>
</g>
<!-- solvate&#45;&gt;grompp -->
<g id="edge8" class="edge">
<title>solvate&#45;&gt;grompp</title>
<path fill="none" stroke="black" d="M162.12,-313.19C162.12,-297.21 162.12,-274.43 162.12,-256.03"/>
<polygon fill="black" stroke="black" points="165.63,-256.2 162.13,-246.2 158.63,-256.2 165.63,-256.2"/>
<g id="a_edge8&#45;label"><a xlink:title="GROMACS coordinate and topology files">
<g id="a_edge8_2"><a xlink:href="https://manual.gromacs.org/current/reference-manual/file-formats.html#gro" xlink:title="&lt;TABLE&gt;">
<text text-anchor="start" x="165.5" y="-282.2" font-family="Times,serif" font-size="14.00"> conf.gro</text>
</a>
</g>
<g id="a_edge8_3"><a xlink:href="https://manual.gromacs.org/current/reference-manual/file-formats.html#top" xlink:title="&lt;TABLE&gt;">
<text text-anchor="start" x="162.12" y="-265.7" font-family="Times,serif" font-size="14.00"> &#160;topol.top</text>
</a>
</g>
</a>
</g>
</g>
<!-- input_mdp&#45;&gt;grompp -->
<g id="edge7" class="edge">
<title>input_mdp&#45;&gt;grompp:e</title>
<path fill="none" stroke="black" d="M323.98,-325.85C323.14,-303.78 317.7,-237.51 282.46,-225.78"/>
<polygon fill="black" stroke="black" points="283.04,-222.33 272.62,-224.24 281.95,-229.25 283.04,-222.33"/>
</g>
<!-- mdrun -->
<g id="node8" class="node">
<title>mdrun</title>
<g id="a_node8"><a xlink:href="https://manual.gromacs.org/current/onlinehelp/gmx-mdrun.html" xlink:title="The moment you have all been waiting for! START YOUR MD RUN" target="_blank">
<polygon fill="none" stroke="black" points="270.12,-151 54.12,-151 54.12,-110 270.12,-110 270.12,-151"/>
<text text-anchor="middle" x="162.12" y="-133.7" font-family="Times,serif" font-size="14.00">Run the simulation (EM or MD)</text>
<text text-anchor="middle" x="162.12" y="-117.2" font-family="Times,serif" font-size="14.00">gmx mdrun</text>
</a>
</g>
</g>
<!-- grompp&#45;&gt;mdrun -->
<g id="edge9" class="edge">
<title>grompp&#45;&gt;mdrun</title>
<g id="a_edge9"><a xlink:href="https://manual.gromacs.org/current/reference-manual/file-formats.html#tpr" xlink:title=" &#160;topol.tpr">
<path fill="none" stroke="black" d="M162.12,-203.15C162.12,-191.28 162.12,-175.94 162.12,-162.5"/>
<polygon fill="black" stroke="black" points="165.63,-162.83 162.13,-152.83 158.63,-162.83 165.63,-162.83"/>
</a>
</g>
<g id="a_edge9&#45;label"><a xlink:href="https://manual.gromacs.org/current/reference-manual/file-formats.html#tpr" xlink:title="Portable GROMACS binary run input file (contains all information to start MD run)">
<text text-anchor="middle" x="189.12" y="-172.2" font-family="Times,serif" font-size="14.00"> &#160;topol.tpr</text>
</a>
</g>
</g>
<!-- mdrun&#45;&gt;mdrun -->
<g id="edge10" class="edge">
<title>mdrun&#45;&gt;mdrun</title>
<g id="a_edge10"><a xlink:href="https://manual.gromacs.org/current/reference-manual/file-formats.html#cpt" xlink:title="Continuation\nstate.cpt">
<path fill="none" stroke="black" d="M270.56,-137.65C281.29,-136.22 288.12,-133.83 288.12,-130.5 288.12,-128.52 285.72,-126.88 281.51,-125.57"/>
<polygon fill="black" stroke="black" points="282.53,-122.2 272.04,-123.65 281.15,-129.07 282.53,-122.2"/>
</a>
</g>
<g id="a_edge10&#45;label"><a xlink:href="https://manual.gromacs.org/current/reference-manual/file-formats.html#cpt" xlink:title="Checkpoint file">
<text text-anchor="middle" x="323.38" y="-133.7" font-family="Times,serif" font-size="14.00">Continuation</text>
<text text-anchor="middle" x="323.38" y="-117.2" font-family="Times,serif" font-size="14.00">state.cpt</text>
</a>
</g>
</g>
<!-- analysis -->
<g id="node9" class="node">
<title>analysis</title>
<g id="a_node9"><a xlink:href="https://manual.gromacs.org/current/user-guide/cmdline.html#commands-by-topic" xlink:title="Your favourite GROMACS analysis tool" target="_blank">
<polygon fill="none" stroke="black" points="153.12,-41 45.12,-41 45.12,0 153.12,0 153.12,-41"/>
<text text-anchor="middle" x="99.12" y="-23.7" font-family="Times,serif" font-size="14.00">Analysis</text>
<text text-anchor="middle" x="99.12" y="-7.2" font-family="Times,serif" font-size="14.00">gmx ...</text>
</a>
</g>
</g>
<!-- mdrun&#45;&gt;analysis -->
<g id="edge11" class="edge">
<title>mdrun&#45;&gt;analysis</title>
<g id="a_edge11"><a xlink:href="https://manual.gromacs.org/current/reference-manual/file-formats.html#xtc" xlink:title=" traj.xtc /\ntraj.trr\l">
<path fill="none" stroke="black" d="M150.57,-109.69C140.98,-93.25 127.2,-69.62 116.31,-50.96"/>
<polygon fill="black" stroke="black" points="119.43,-49.36 111.37,-42.49 113.39,-52.89 119.43,-49.36"/>
</a>
</g>
<g id="a_edge11&#45;label"><a xlink:href="https://manual.gromacs.org/current/reference-manual/file-formats.html#xtc" xlink:title="Portable compressed trajectory / full precision portable trajectory">
<text text-anchor="middle" x="164.7" y="-78.7" font-family="Times,serif" font-size="14.00"> traj.xtc /</text>
<text text-anchor="start" x="139.95" y="-62.2" font-family="Times,serif" font-size="14.00">traj.trr</text>
</a>
</g>
</g>
<!-- energy -->
<g id="node10" class="node">
<title>energy</title>
<g id="a_node10"><a xlink:href="https://manual.gromacs.org/current/onlinehelp/gmx-energy.html" xlink:title="Energy plots, averages and fluctuations" target="_blank">
<polygon fill="none" stroke="black" points="279.12,-41 171.12,-41 171.12,0 279.12,0 279.12,-41"/>
<text text-anchor="middle" x="225.12" y="-23.7" font-family="Times,serif" font-size="14.00">Analysis</text>
<text text-anchor="middle" x="225.12" y="-7.2" font-family="Times,serif" font-size="14.00">gmx energy</text>
</a>
</g>
</g>
<!-- mdrun&#45;&gt;energy -->
<g id="edge12" class="edge">
<title>mdrun&#45;&gt;energy</title>
<g id="a_edge12"><a xlink:href="https://manual.gromacs.org/current/reference-manual/file-formats.html#edr" xlink:title=" ener.edr">
<path fill="none" stroke="black" d="M180.21,-109.61C184.74,-104.12 189.37,-98.02 193.12,-92 200.95,-79.48 207.95,-64.73 213.39,-51.96"/>
<polygon fill="black" stroke="black" points="216.61,-53.34 217.18,-42.76 210.14,-50.67 216.61,-53.34"/>
</a>
</g>
<g id="a_edge12&#45;label"><a xlink:href="https://manual.gromacs.org/current/reference-manual/file-formats.html#edr" xlink:title="Portable energy file">
<text text-anchor="middle" x="233.43" y="-70.45" font-family="Times,serif" font-size="14.00"> ener.edr</text>
</a>
</g>
</g>
</g>
</svg>
