<?xml version="1.0" encoding="UTF-8" standalone="no"?>
<!DOCTYPE svg PUBLIC "-//W3C//DTD SVG 1.1//EN"
 "http://www.w3.org/Graphics/SVG/1.1/DTD/svg11.dtd">
<!-- Generated by graphviz version 12.2.1 (20241206.2353)
 -->
<!-- Title: flowchart Pages: 1 -->
<svg width="350pt" height="603pt"
 viewBox="0.00 0.00 349.62 603.00" xmlns="http://www.w3.org/2000/svg" xmlns:xlink="http://www.w3.org/1999/xlink">
<g id="graph0" class="graph" transform="scale(1 1) rotate(0) translate(4 599)">
<title>flowchart</title>
<polygon fill="white" stroke="none" points="-4,4 -4,-599 345.62,-599 345.62,4 -4,4"/>
<!-- input_pdb -->
<g id="node1" class="node">
<title>input_pdb</title>
<g id="a_node1"><a xlink:href="https://manual.gromacs.org/current/reference-manual/file-formats.html#pdb" xlink:title="Protein Databank file" target="_blank">
<text text-anchor="middle" x="306" y="-581.7" font-family="Times,serif" font-size="14.00">protein.pdb</text>
</a>
</g>
</g>
<!-- pdb2gmx -->
<g id="node2" class="node">
<title>pdb2gmx</title>
<g id="a_node2"><a xlink:href="https://manual.gromacs.org/current/onlinehelp/gmx-pdb2gmx.html" xlink:title="Convert PDB file to GROMACS coordinate file and topology" target="_blank">
<polygon fill="none" stroke="black" points="252,-541.5 36,-541.5 36,-500.5 252,-500.5 252,-541.5"/>
<text text-anchor="middle" x="144" y="-524.2" font-family="Times,serif" font-size="14.00">Generate a GROMACS topology</text>
<text text-anchor="middle" x="144" y="-507.7" font-family="Times,serif" font-size="14.00">gmx pdb2gmx</text>
</a>
</g>
</g>
<!-- input_pdb&#45;&gt;pdb2gmx -->
<g id="edge1" class="edge">
<title>input_pdb&#45;&gt;pdb2gmx:e</title>
<path fill="none" stroke="black" d="M302.16,-578.82C294.6,-565.51 277.28,-536.7 263.06,-525.54"/>
<polygon fill="black" stroke="black" points="264.93,-522.55 254.38,-521.62 262.05,-528.93 264.93,-522.55"/>
</g>
<!-- input_mdp -->
<g id="node5" class="node">
<title>input_mdp</title>
<g id="a_node5"><a xlink:href="https://manual.gromacs.org/current/reference-manual/file-formats.html#mdp" xlink:title="Parameter file from grompp (controls all MD parameters)" target="_blank">
<text text-anchor="middle" x="306" y="-328.95" font-family="Times,serif" font-size="14.00">grompp.mdp</text>
</a>
</g>
</g>
<!-- input_pdb&#45;&gt;input_mdp -->
<!-- editconf -->
<g id="node3" class="node">
<title>editconf</title>
<g id="a_node3"><a xlink:href="https://manual.gromacs.org/current/onlinehelp/gmx-editconf.html" xlink:title="Adjust box size and placement of molecule" target="_blank">
<polygon fill="none" stroke="black" points="108,-448 0,-448 0,-407 108,-407 108,-448"/>
<text text-anchor="middle" x="54" y="-430.7" font-family="Times,serif" font-size="14.00">Enlarge the box</text>
<text text-anchor="middle" x="54" y="-414.2" font-family="Times,serif" font-size="14.00">gmx editconf</text>
</a>
</g>
</g>
<!-- pdb2gmx&#45;&gt;editconf -->
<g id="edge2" class="edge">
<title>pdb2gmx&#45;&gt;editconf</title>
<g id="a_edge2"><a xlink:href="https://manual.gromacs.org/current/reference-manual/file-formats.html#gro" xlink:title="conf.gro">
<path fill="none" stroke="black" d="M105.81,-500.04C98.12,-494.97 90.5,-489.07 84.25,-482.5 77.64,-475.55 71.96,-466.88 67.36,-458.53"/>
<polygon fill="black" stroke="black" points="70.49,-456.95 62.82,-449.63 64.25,-460.13 70.49,-456.95"/>
</a>
</g>
<g id="a_edge2&#45;label"><a xlink:href="https://manual.gromacs.org/current/reference-manual/file-formats.html#gro" xlink:title="GROMACS coordinate file containing molecules from PDB file">
<text text-anchor="middle" x="107.12" y="-469.2" font-family="Times,serif" font-size="14.00">conf.gro</text>
</a>
</g>
</g>
<!-- solvate -->
<g id="node4" class="node">
<title>solvate</title>
<g id="a_node4"><a xlink:href="https://manual.gromacs.org/current/onlinehelp/gmx-solvate.html" xlink:title="Fill box with water (solvate molecule)" target="_blank">
<polygon fill="none" stroke="black" points="252,-354.5 36,-354.5 36,-313.5 252,-313.5 252,-354.5"/>
<text text-anchor="middle" x="144" y="-337.2" font-family="Times,serif" font-size="14.00">Solvate protein</text>
<text text-anchor="middle" x="144" y="-320.7" font-family="Times,serif" font-size="14.00">gmx solvate</text>
</a>
</g>
</g>
<!-- pdb2gmx&#45;&gt;solvate -->
<g id="edge3" class="edge">
<title>pdb2gmx&#45;&gt;solvate</title>
<g id="a_edge3"><a xlink:href="https://manual.gromacs.org/current/reference-manual/file-formats.html#top" xlink:title=" &#160;topol.top">
<path fill="none" stroke="black" d="M144,-500.2C144,-468.16 144,-404.66 144,-366.4"/>
<polygon fill="black" stroke="black" points="147.5,-366.45 144,-356.45 140.5,-366.45 147.5,-366.45"/>
</a>
</g>
<g id="a_edge3&#45;label"><a xlink:href="https://manual.gromacs.org/current/reference-manual/file-formats.html#top" xlink:title="GROMACS ascii topology file">
<text text-anchor="middle" x="172.12" y="-422.45" font-family="Times,serif" font-size="14.00"> &#160;topol.top</text>
</a>
</g>
</g>
<!-- editconf&#45;&gt;solvate -->
<g id="edge4" class="edge">
<title>editconf&#45;&gt;solvate</title>
<g id="a_edge4"><a xlink:href="https://manual.gromacs.org/current/reference-manual/file-formats.html#gro" xlink:title="conf.gro">
<path fill="none" stroke="black" d="M62.14,-406.72C67.33,-395.75 74.84,-382.39 84.25,-372.5 87.96,-368.6 92.15,-364.94 96.56,-361.54"/>
<polygon fill="black" stroke="black" points="98.46,-364.48 104.58,-355.83 94.4,-358.78 98.46,-364.48"/>
</a>
</g>
<g id="a_edge4&#45;label"><a xlink:href="https://manual.gromacs.org/current/reference-manual/file-formats.html#gro" xlink:title="GROMACS coordinate file with adjusted box etc.">
<text text-anchor="middle" x="107.12" y="-375.7" font-family="Times,serif" font-size="14.00">conf.gro</text>
</a>
</g>
</g>
<!-- grompp -->
<g id="node6" class="node">
<title>grompp</title>
<g id="a_node6"><a xlink:href="https://manual.gromacs.org/current/onlinehelp/gmx-grompp.html" xlink:title="Process parameters, coordinates and topology and write binary topology" target="_blank">
<polygon fill="none" stroke="black" points="252,-244.5 36,-244.5 36,-203.5 252,-203.5 252,-244.5"/>
<text text-anchor="middle" x="144" y="-227.2" font-family="Times,serif" font-size="14.00">Generate mdrun input file</text>
<text text-anchor="middle" x="144" y="-210.7" font-family="Times,serif" font-size="14.00">gmx grompp</text>
</a>
</g>
</g>
<!-- solvate&#45;&gt;grompp -->
<g id="edge7" class="edge">
<title>solvate&#45;&gt;grompp</title>
<path fill="none" stroke="black" d="M144,-313.19C144,-297.21 144,-274.43 144,-256.03"/>
<polygon fill="black" stroke="black" points="147.5,-256.2 144,-246.2 140.5,-256.2 147.5,-256.2"/>
<g id="a_edge7&#45;label"><a xlink:title="GROMACS coordinate and topology files">
<g id="a_edge7_0"><a xlink:href="https://manual.gromacs.org/current/reference-manual/file-formats.html#gro" xlink:title="&lt;TABLE&gt;">
<text text-anchor="start" x="147.38" y="-282.2" font-family="Times,serif" font-size="14.00"> conf.gro</text>
</a>
</g>
<g id="a_edge7_1"><a xlink:href="https://manual.gromacs.org/current/reference-manual/file-formats.html#top" xlink:title="&lt;TABLE&gt;">
<text text-anchor="start" x="144" y="-265.7" font-family="Times,serif" font-size="14.00"> &#160;topol.top</text>
</a>
</g>
</a>
</g>
</g>
<!-- input_mdp&#45;&gt;grompp -->
<g id="edge6" class="edge">
<title>input_mdp&#45;&gt;grompp:e</title>
<path fill="none" stroke="black" d="M305.85,-325.85C305.02,-303.78 299.57,-237.51 264.33,-225.78"/>
<polygon fill="black" stroke="black" points="264.92,-222.33 254.5,-224.24 263.83,-229.25 264.92,-222.33"/>
</g>
<!-- mdrun -->
<g id="node7" class="node">
<title>mdrun</title>
<g id="a_node7"><a xlink:href="https://manual.gromacs.org/current/onlinehelp/gmx-mdrun.html" xlink:title="The moment you have all been waiting for! START YOUR MD RUN" target="_blank">
<polygon fill="none" stroke="black" points="252,-151 36,-151 36,-110 252,-110 252,-151"/>
<text text-anchor="middle" x="144" y="-133.7" font-family="Times,serif" font-size="14.00">Run the simulation (EM or MD)</text>
<text text-anchor="middle" x="144" y="-117.2" font-family="Times,serif" font-size="14.00">gmx mdrun</text>
</a>
</g>
</g>
<!-- grompp&#45;&gt;mdrun -->
<g id="edge8" class="edge">
<title>grompp&#45;&gt;mdrun</title>
<g id="a_edge8"><a xlink:href="https://manual.gromacs.org/current/reference-manual/file-formats.html#tpr" xlink:title=" &#160;topol.tpr">
<path fill="none" stroke="black" d="M144,-203.15C144,-191.28 144,-175.94 144,-162.5"/>
<polygon fill="black" stroke="black" points="147.5,-162.83 144,-152.83 140.5,-162.83 147.5,-162.83"/>
</a>
</g>
<g id="a_edge8&#45;label"><a xlink:href="https://manual.gromacs.org/current/reference-manual/file-formats.html#tpr" xlink:title="Portable GROMACS binary run input file (contains all information to start MD run)">
<text text-anchor="middle" x="171" y="-172.2" font-family="Times,serif" font-size="14.00"> &#160;topol.tpr</text>
</a>
</g>
</g>
<!-- mdrun&#45;&gt;mdrun -->
<g id="edge9" class="edge">
<title>mdrun&#45;&gt;mdrun</title>
<g id="a_edge9"><a xlink:href="https://manual.gromacs.org/current/reference-manual/file-formats.html#cpt" xlink:title="Continuation\nstate.cpt">
<path fill="none" stroke="black" d="M252.43,-137.65C263.17,-136.22 270,-133.83 270,-130.5 270,-128.52 267.59,-126.88 263.39,-125.57"/>
<polygon fill="black" stroke="black" points="264.41,-122.2 253.91,-123.65 263.02,-129.07 264.41,-122.2"/>
</a>
</g>
<g id="a_edge9&#45;label"><a xlink:href="https://manual.gromacs.org/current/reference-manual/file-formats.html#cpt" xlink:title="Checkpoint file">
<text text-anchor="middle" x="305.25" y="-133.7" font-family="Times,serif" font-size="14.00">Continuation</text>
<text text-anchor="middle" x="305.25" y="-117.2" font-family="Times,serif" font-size="14.00">state.cpt</text>
</a>
</g>
</g>
<!-- analysis -->
<g id="node8" class="node">
<title>analysis</title>
<g id="a_node8"><a xlink:href="https://manual.gromacs.org/current/user-guide/cmdline.html#commands-by-topic" xlink:title="Your favourite GROMACS analysis tool" target="_blank">
<polygon fill="none" stroke="black" points="135,-41 27,-41 27,0 135,0 135,-41"/>
<text text-anchor="middle" x="81" y="-23.7" font-family="Times,serif" font-size="14.00">Analysis</text>
<text text-anchor="middle" x="81" y="-7.2" font-family="Times,serif" font-size="14.00">gmx ...</text>
</a>
</g>
</g>
<!-- mdrun&#45;&gt;analysis -->
<g id="edge10" class="edge">
<title>mdrun&#45;&gt;analysis</title>
<g id="a_edge10"><a xlink:href="https://manual.gromacs.org/current/reference-manual/file-formats.html#xtc" xlink:title=" traj.xtc /\ntraj.trr\l">
<path fill="none" stroke="black" d="M132.44,-109.69C122.85,-93.25 109.07,-69.62 98.19,-50.96"/>
<polygon fill="black" stroke="black" points="101.31,-49.36 93.24,-42.49 95.26,-52.89 101.31,-49.36"/>
</a>
</g>
<g id="a_edge10&#45;label"><a xlink:href="https://manual.gromacs.org/current/reference-manual/file-formats.html#xtc" xlink:title="Portable compressed trajectory / full precision portable trajectory">
<text text-anchor="middle" x="146.57" y="-78.7" font-family="Times,serif" font-size="14.00"> traj.xtc /</text>
<text text-anchor="start" x="121.82" y="-62.2" font-family="Times,serif" font-size="14.00">traj.trr</text>
</a>
</g>
</g>
<!-- energy -->
<g id="node9" class="node">
<title>energy</title>
<g id="a_node9"><a xlink:href="https://manual.gromacs.org/current/onlinehelp/gmx-energy.html" xlink:title="Energy plots, averages and fluctuations" target="_blank">
<polygon fill="none" stroke="black" points="261,-41 153,-41 153,0 261,0 261,-41"/>
<text text-anchor="middle" x="207" y="-23.7" font-family="Times,serif" font-size="14.00">Analysis</text>
<text text-anchor="middle" x="207" y="-7.2" font-family="Times,serif" font-size="14.00">gmx energy</text>
</a>
</g>
</g>
<!-- mdrun&#45;&gt;energy -->
<g id="edge11" class="edge">
<title>mdrun&#45;&gt;energy</title>
<g id="a_edge11"><a xlink:href="https://manual.gromacs.org/current/reference-manual/file-formats.html#edr" xlink:title=" ener.edr">
<path fill="none" stroke="black" d="M162.09,-109.61C166.61,-104.12 171.24,-98.02 175,-92 182.82,-79.48 189.82,-64.73 195.27,-51.96"/>
<polygon fill="black" stroke="black" points="198.48,-53.34 199.05,-42.76 192.01,-50.67 198.48,-53.34"/>
</a>
</g>
<g id="a_edge11&#45;label"><a xlink:href="https://manual.gromacs.org/current/reference-manual/file-formats.html#edr" xlink:title="Portable energy file">
<text text-anchor="middle" x="215.31" y="-70.45" font-family="Times,serif" font-size="14.00"> ener.edr</text>
</a>
</g>
</g>
</g>
</svg>
